<svg xmlns="http://www.w3.org/2000/svg" viewBox="0 0 463.69 88.32"><defs><style>.cls-1{fill:#fff;}</style></defs><g id="Layer_2" data-name="Layer 2"><g id="Layer_1-2" data-name="Layer 1"><path class="cls-1" d="M140.48,38.44c0,9.49-.22,19,.08,28.46.16,5-2.51,5.34-6.26,5.12-3.58-.2-7.62.85-7.23-5.21.36-5.64-.08-11.32.1-17,.1-3.26-1.2-4.48-4.37-4.45q-12.48.12-25,0c-3.32,0-4.86,1.16-4.73,4.69.2,5.65,0,11.32.14,17,.13,3.66-1.28,5.27-5,5a30.59,30.59,0,0,0-4.49,0c-3.19.2-4.49-1.19-4.42-4.42.14-6-.08-12,.06-18,.06-2.94-1-4.5-4-4.23-4,.35-4.4-2.36-4.1-5.16s-1.52-7,3.79-7c3.68,0,4.41-1.83,4.33-5-.16-6.15.1-12.32-.14-18.47-.15-4,1.19-6,5.41-5.54a19,19,0,0,0,4-.06C92,3.85,93.2,5.42,93.16,8.55c-.07,6.49.16,13,0,19.47-.12,3.89,1.32,5.35,5.22,5.25,8-.22,16-.26,24-.06,3.76.09,5-1.31,4.82-5-.22-6.32.1-12.66-.09-19-.1-3.61,1.17-5,4.88-5,8.56-.2,8.56-.37,8.57,8.26S140.48,29.79,140.48,38.44Z"/><path class="cls-1" d="M228.06,71.45H168.61c9.87-24.34,19.42-47.9,29-71.45l1.63.05C208.72,23.59,218.23,47.13,228.06,71.45ZM209.52,59.63c-3.79-9.65-7.24-18.47-10.7-27.28l-1.46.06C194,41.27,190.61,50.12,187,59.63Z"/><path class="cls-1" d="M358,61.93c3.37-2.66,6-5.16,9.12-7,1-.58,3.36.19,4.5,1.09,4.58,3.64,9.82,5.42,15.39,4.36,2.62-.5,6-2.88,6.82-5.18.64-1.88-1.43-5.79-3.42-7.24-3.57-2.59-8-3.95-12-5.94a68.26,68.26,0,0,1-9.18-5c-11.2-7.94-10.63-23.16,1-30.38C380.57.23,399,3.29,406.62,13.9a57,57,0,0,0-6.13,4.63c-1.93,1.88-3.25,1.49-5.61.5a46.46,46.46,0,0,0-12.77-3.24c-3.33-.37-6.77,1.58-6.77,5.18,0,2.26,2,5.43,4,6.61,5.15,3,10.87,5,16.25,7.6,6.22,3,11.31,7.15,12.45,14.55,1.61,10.47-3.54,19-13.73,21.93C380.87,75.47,369.07,72.09,358,61.93Z"/><path class="cls-1" d="M259.72,5.48c8.93-3.32,14.46-1.53,18.85,5.66,4,6.49,8,13,12.57,20.41,3.08-5.05,5.66-9.25,8.19-13.46,1.29-2.15,2.46-4.36,3.76-6.49,4.81-7.9,8.61-9.24,18.69-6.19-2,3.33-3.9,6.57-5.89,9.73-5,7.9-10.28,15.6-14.85,23.72a31.43,31.43,0,0,0-3.36,11.63c-.57,4.94-.14,10-.18,15-.05,6.5-.06,6.5-6.77,6.56-.83,0-1.67,0-2.5,0-3,.24-4.19-1.16-4.15-4.12.1-6.17.33-12.35-.09-18.49a21.54,21.54,0,0,0-2.73-9.31c-6.09-10.13-12.62-20-18.95-30C261.37,8.67,260.61,7.09,259.72,5.48Z"/><path class="cls-1" d="M26.88,36.77c0,9.17.35,18.35-.08,27.49-.65,14-8.39,22.54-20.94,23.8C3.52,88.3.16,89.24.47,85.18.71,81.91-2.22,77.11,4.11,76s9.19-4.12,9.45-11.34c.41-11.32.33-22.66.4-34,0-7.16.12-14.33-.07-21.5-.09-3.63,1.25-5,4.93-5,8.23-.1,8.21-.25,8.2,8.13,0,8.16,0,16.33,0,24.49Z"/><path class="cls-1" d="M463.59,37.92c0,9.65-.22,19.3.07,28.94.2,6.45-4.17,4.87-7.76,5.19-4,.35-5.64-.94-5.6-5.24q.29-28.7,0-57.39c-.06-4.91,2.41-5.4,6.2-5.23s7.42-.7,7.18,5.29C463.32,19,463.59,28.44,463.59,37.92Z"/></g></g></svg>